<?xml version="1.0" encoding="utf-8"?>
<!-- Generator: Adobe Illustrator 24.1.1, SVG Export Plug-In . SVG Version: 6.00 Build 0)  -->
<svg version="1.1" id="Livello_1" xmlns="http://www.w3.org/2000/svg" xmlns:xlink="http://www.w3.org/1999/xlink" x="0px" y="0px"
	 viewBox="0 0 30 30" style="enable-background:new 0 0 30 30;" xml:space="preserve">
	<path d="M15,2.35l3.73,7.95l0.23,0.48l0.53,0.08l8.44,1.29l-6.14,6.29l-0.35,0.36l0.08,0.5l1.44,8.82L15.48,24L15,23.73L14.52,24
		l-7.47,4.13l1.44-8.82l0.08-0.5l-0.35-0.36l-6.14-6.29l8.44-1.29l0.53-0.08l0.23-0.48L15,2.35 M15,0l-4.64,9.88L0,11.46l7.5,7.69
		L5.73,30L15,24.88L24.27,30L22.5,19.15l7.5-7.69L19.64,9.88L15,0L15,0z"/>
</svg>
