<?xml version="1.0" encoding="utf-8"?>
<!-- Generator: Adobe Illustrator 24.1.1, SVG Export Plug-In . SVG Version: 6.00 Build 0)  -->
<svg version="1.1" id="Livello_1" xmlns="http://www.w3.org/2000/svg" xmlns:xlink="http://www.w3.org/1999/xlink" x="0px" y="0px"
	 viewBox="0 0 30 30" style="enable-background:new 0 0 30 30;" xml:space="preserve">
<style type="text/css">
	.st0{fill:#FFFF00;}
</style>
<g>
	<polygon class="st0" points="8.1,18.9 1,11.7 10.7,10.3 15,1.1 19.4,10.3 29,11.7 22.1,18.9 23.6,29 15.1,24.2 6.5,29 	"/>
	<path d="M15,2.3l3.8,8l0.2,0.5l0.5,0.1l8.4,1.3l-6.1,6.3l-0.3,0.4l0.1,0.5L23,28l-7.4-4.1l-0.5-0.3l-0.5,0.3L7.1,28l1.5-8.8
		l0.1-0.5l-0.4-0.4l-6.2-6.3l8.5-1.3l0.5-0.1l0.2-0.5L15,2.3 M15-0.1l-4.6,9.9L0,11.4l7.6,7.7L5.8,29.9l9.3-5.1l9.2,5.1l-1.7-10.8
		l7.4-7.7L19.7,9.8L15-0.1L15-0.1z"/>
</g>
</svg>
